<svg version="1.1" id="Layer_1" xmlns="http://www.w3.org/2000/svg" xmlns:xlink="http://www.w3.org/1999/xlink" x="0px" y="0px"
	 width="100%" viewBox="80 30 870 940" enable-background="new 80 30 870 940" xml:space="preserve">
<!-- White glow effect filter -->
<defs>
	<filter id="glow" x="-50%" y="-50%" width="200%" height="200%">
		<feGaussianBlur stdDeviation="15" result="coloredBlur"/>
		<feMerge>
			<feMergeNode in="coloredBlur"/>
			<feMergeNode in="SourceGraphic"/>
		</feMerge>
	</filter>
</defs>
<!-- White background rectangle with rounded corners and glow -->
<rect x="115" y="62" width="796" height="888" rx="110" ry="110" fill="#FFFFFF" filter="url(#glow)" opacity="0.95"/>
<path fill="#000000" opacity="1.000000" stroke="none"
	d="
M105.024956,382.000000
	C105.007935,312.506958 105.096390,243.513641 104.923935,174.520966
	C104.849152,144.603836 111.875320,117.167915 131.474152,93.840202
	C150.276733,71.460220 174.605301,58.791176 203.104691,53.678078
	C213.288330,51.851025 223.587631,51.666355 233.919373,51.669052
	C423.401917,51.718525 612.886414,51.247314 802.365784,52.024387
	C850.727905,52.222725 887.908752,74.481628 910.189819,118.633095
	C917.013123,132.153915 919.817322,146.759537 920.457825,161.958282
	C921.377563,183.784470 921.213745,205.606888 920.875977,227.417297
	C919.848938,293.734436 920.567322,360.051727 920.466064,426.368103
	C920.286926,543.677429 920.283447,660.987305 920.493835,778.296509
	C920.528198,797.447266 921.292969,816.605835 921.063660,835.766174
	C920.813049,856.715515 918.587463,877.322937 908.748718,896.293030
	C890.230774,931.997742 861.228760,953.293762 821.313782,959.446533
	C813.394714,960.667236 805.418030,961.044556 797.434998,961.046204
	C606.619690,961.085083 415.804352,961.159241 224.989136,961.034912
	C182.566895,961.007263 148.473618,944.098999 124.632713,908.497070
	C112.839790,890.886597 105.955757,871.243958 105.729347,849.922852
	C104.074837,694.118286 105.469597,538.307556 105.024956,382.000000
M899.711365,644.500000
	C899.696960,484.335785 899.713074,324.171539 899.635010,164.007339
	C899.623352,140.061951 890.897766,119.354187 874.181458,102.407936
	C854.926086,82.887817 831.250305,73.295708 803.739441,73.298080
	C610.077576,73.314796 416.415680,73.339088 222.753830,73.264114
	C207.294403,73.258133 192.629761,76.384583 178.917496,83.294006
	C145.321442,100.222603 126.577484,127.506538 126.484901,165.272827
	C126.060440,338.434052 126.260696,511.596832 126.133667,684.758972
	C126.130363,689.263245 127.331383,690.771362 132.030060,690.749878
	C170.528305,690.573792 209.027725,690.657532 247.526779,690.651367
	C254.088165,690.650330 254.389938,690.091431 253.169571,683.276184
	C249.603424,663.360535 246.276978,643.401184 242.599411,623.506470
	C239.826874,608.507751 236.851089,593.538452 232.729416,578.059143
	C231.503708,583.920471 230.672516,589.003235 229.341232,593.951538
	C227.995056,598.955078 224.149796,601.107178 219.021057,600.292603
	C214.817017,599.624878 211.947586,596.135254 211.649384,591.511475
	C211.366776,587.129211 212.349579,582.886169 213.209198,578.679810
	C213.945953,575.074463 213.340912,573.479553 209.310715,573.213318
	C203.858109,572.853210 198.408569,572.057922 193.031982,571.052185
	C188.259064,570.159424 185.877579,566.322571 186.768753,561.846069
	C187.574097,557.800720 190.689316,555.952209 195.537338,556.674011
	C197.973389,557.036743 200.277771,558.221008 202.801392,557.913269
	C205.977890,550.957458 205.867828,550.747498 198.322540,549.241333
	C194.012787,548.380981 191.921768,545.328003 192.656769,540.784119
	C193.341812,536.549011 196.147064,534.991699 200.159592,535.188660
	C201.484238,535.253784 202.813477,535.712646 204.115891,535.624878
	C205.921432,535.502991 207.991791,537.672668 209.533951,535.099304
	C210.993805,532.663269 210.520950,530.503296 209.008179,528.148560
	C205.408752,522.545898 201.450104,517.031921 199.368256,510.689728
	C197.561325,505.185028 194.424316,502.274597 188.954254,500.071198
	C172.258392,493.345978 168.230804,475.618652 179.840378,461.759735
	C181.677399,459.566772 181.651993,457.851562 180.580948,455.486023
	C177.375519,448.406555 177.906570,441.358154 182.345444,435.114471
	C184.420197,432.196136 184.201065,430.434235 182.387115,427.715515
	C176.913101,419.511078 177.331894,411.116882 182.435089,402.869263
	C186.381912,396.490509 191.950012,392.154510 199.337616,390.576538
	C203.474030,389.692963 204.174744,387.346558 203.397049,383.685303
	C200.189850,368.586304 197.103439,353.461731 193.906204,338.360596
	C190.781769,323.603271 188.498123,308.955536 194.417709,294.222015
	C206.027817,265.325043 218.512405,236.805832 231.151932,208.353928
	C234.172333,201.554886 238.688522,195.259430 245.267578,191.906143
	C253.384247,187.769135 256.109833,182.648590 257.419128,173.189575
	C260.925873,147.854431 282.906158,132.496307 309.507019,135.917679
	C330.248718,138.585449 345.324646,154.447876 348.216736,175.327469
	C351.013397,195.517838 340.447327,214.095963 321.179169,222.405350
	C318.068115,223.746994 317.535980,225.202255 318.202423,228.426697
	C322.903381,251.171570 327.047729,274.035187 332.001953,296.722839
	C335.903290,314.588867 334.961761,331.613373 326.864777,348.230103
	C321.542694,359.152130 317.073334,370.488525 311.801239,381.436707
	C309.809540,385.572754 309.949188,388.338226 313.600250,391.298126
	C316.685608,393.799377 319.339172,396.860443 322.036743,399.808350
	C334.126038,413.019348 343.127960,427.945282 344.163208,446.202850
	C345.453491,468.957611 343.702850,491.435852 334.539368,512.793640
	C332.634705,517.232971 331.650665,521.960632 332.730011,526.932312
	C333.568207,530.793091 334.952179,533.590332 339.738464,531.927368
	C340.377502,533.810425 340.944824,535.358215 341.430145,536.931335
	C346.722443,554.086060 351.988953,571.248840 357.303680,588.396606
	C357.872253,590.231140 357.887512,592.816406 360.252686,593.171692
	C362.683105,593.536865 363.326874,590.962891 364.335663,589.371460
	C372.721619,576.142090 381.683655,563.338318 391.276978,550.940308
	C414.665070,520.714233 444.441711,500.058044 481.245789,489.470428
	C491.013855,486.660370 500.933533,484.729004 510.884033,482.859253
	C513.150146,482.433411 514.725464,481.694885 514.604187,479.143585
	C514.452576,475.953430 515.006287,472.857147 515.620972,469.753815
	C516.131470,467.176422 515.251160,465.410309 512.844971,464.012299
	C508.964722,461.757965 505.197998,459.268005 501.578888,456.611145
	C480.846527,441.390930 470.299042,419.954163 464.739471,395.581360
	C463.198212,388.824524 462.403290,382.006927 457.877838,376.161896
	C454.708405,372.068237 454.487518,367.156921 458.220947,362.828766
	C459.403687,361.457611 459.643250,359.910461 459.657257,358.195282
	C459.741669,347.877075 459.802673,337.578217 460.496338,327.252777
	C461.421417,313.482422 462.916595,299.822632 465.226685,286.234039
	C469.138702,263.222534 475.230530,240.808792 483.837738,219.105042
	C485.042328,216.067459 484.407379,214.539627 481.285248,213.544525
	C475.879883,211.821701 470.693970,209.491058 465.845428,206.546692
	C458.736816,202.229904 458.480774,195.158432 465.229523,190.393280
	C467.529907,188.769028 470.024933,187.366272 472.569031,186.151276
	C480.994781,182.127319 489.683289,178.565948 498.699982,176.322968
	C505.178192,174.711456 508.389648,171.120560 510.622284,165.218338
	C516.687134,149.185257 523.760193,133.510071 529.252075,117.292877
	C532.374084,108.073639 538.208618,103.781212 546.975525,102.102547
	C550.883728,101.354210 554.792908,100.732620 558.822327,100.591759
	C581.343384,99.804436 603.126404,104.344536 624.756714,109.703743
	C668.112366,120.445709 709.804260,135.453476 747.860352,159.336700
	C758.607605,166.081467 768.811646,173.606842 776.421875,184.041916
	C780.304016,189.365036 782.541992,195.275818 780.976868,201.858505
	C772.564819,237.236588 765.740417,273.002777 755.189514,307.857452
	C754.567078,309.913727 754.416748,311.543274 755.723145,313.446198
	C767.593140,330.736237 766.964172,349.025085 758.358643,367.021271
	C748.332397,387.988373 732.767029,402.195709 707.940979,402.679535
	C705.523560,402.726654 704.804443,403.926910 704.247559,405.851868
	C698.932556,424.226227 693.756714,442.521851 696.247925,462.115173
	C697.715149,473.654907 699.845703,482.484039 713.703186,486.227966
	C734.996582,491.980835 755.904663,499.472565 776.083374,508.709686
	C810.555420,524.489868 834.288025,550.082886 847.634827,585.564758
	C859.866272,618.081116 865.246948,651.885071 867.280334,686.350342
	C867.471313,689.587402 868.487915,690.755310 871.708740,690.692200
	C879.372192,690.542053 887.048706,690.435974 894.703918,690.728882
	C898.803650,690.885803 899.816711,689.307800 899.768250,685.498108
	C899.598755,672.167297 899.709229,658.833008 899.711365,644.500000
M745.500000,939.689331
	C763.165955,939.689941 780.832214,939.637939 798.497803,939.713135
	C807.495422,939.751465 816.407654,939.395691 825.304016,937.688965
	C867.232361,929.645264 899.591797,890.803223 899.643677,848.095642
	C899.696838,804.262634 899.613586,760.429199 899.777283,716.596741
	C899.794678,711.941101 898.687134,710.281799 893.708191,710.285645
	C766.042847,710.384888 638.377441,710.303650 510.712036,710.304016
	C384.879425,710.304382 259.046814,710.358643 133.214203,710.394165
	C126.232246,710.396179 126.205070,710.416931 126.205963,717.227722
	C126.211380,758.560791 126.254097,799.893860 126.220352,841.226929
	C126.214912,847.896118 126.314941,854.566650 127.531731,861.115234
	C135.778931,905.500671 173.392838,939.751404 220.002655,939.722412
	C394.835052,939.613647 569.667542,939.684814 745.500000,939.689331
M538.151917,385.485046
	C536.439941,383.951935 534.630127,384.473206 533.117737,385.600555
	C521.887390,393.971954 509.128113,395.390015 495.640686,394.530182
	C491.617401,394.273682 487.619415,392.528168 483.451202,393.621277
	C483.451202,394.871765 483.228455,395.922668 483.483643,396.840729
	C490.700165,422.800415 505.073700,443.231445 530.846436,453.070648
	C558.112915,463.480133 585.946899,461.894836 613.519531,453.304688
	C622.645935,450.461395 630.881836,445.732910 639.051147,440.862732
	C641.809814,439.218140 645.031250,438.037262 647.771484,440.891998
	C650.501099,443.735718 649.084167,446.745483 647.510620,449.624298
	C644.259094,455.572723 638.975464,459.358154 633.321228,462.624908
	C618.239136,471.338593 601.895569,475.999908 584.576477,477.392914
	C582.065979,477.594849 579.303223,477.562073 579.261169,481.181488
	C579.211365,485.469513 579.249451,489.758545 579.249451,494.524597
	C581.105530,494.524597 583.101135,494.801666 584.994995,494.480133
	C598.275146,492.225494 611.394470,489.292786 624.131775,484.814941
	C642.347046,478.411346 659.496216,470.124664 673.801880,456.801025
	C675.615112,455.112335 677.394348,453.510223 677.675537,450.668457
	C679.665771,430.557983 684.606323,411.118805 691.370972,392.120605
	C693.764099,385.399719 696.075256,384.146606 703.012756,385.169220
	C707.464661,385.825378 711.945374,386.243500 716.351685,384.774689
	C733.358582,379.105377 742.312012,366.405518 746.520264,349.783539
	C748.665405,341.310364 748.410583,332.905273 743.465332,325.261871
	C740.892395,321.285034 737.857605,317.670013 732.597290,317.368805
	C720.485291,316.675262 710.333435,320.358002 703.275391,330.763855
	C700.627869,334.667023 697.304810,336.080719 692.535400,334.593964
	C684.741882,332.164581 680.433289,326.434601 677.905579,319.322540
	C671.137573,300.280457 670.328857,280.669678 673.112610,260.800812
	C674.002502,254.449142 676.471558,248.500839 678.368591,241.971161
	C669.484009,242.391800 661.187622,243.148712 652.895813,243.101425
	C635.597168,243.002838 618.348206,241.571182 601.237244,239.144394
	C570.183411,234.740143 539.429138,228.637894 508.835480,221.737411
	C501.861420,220.164398 501.849152,220.123413 498.958649,226.919922
	C497.982544,229.215042 497.070129,231.541702 496.236328,233.892181
	C481.828033,274.509216 476.619537,316.513916 477.365723,359.409271
	C477.449097,364.201721 478.903229,365.379059 483.544189,364.402649
	C485.324677,364.028015 487.059052,363.389282 488.775879,362.764832
	C496.613007,359.914093 503.402313,354.795715 511.421661,352.311737
	C513.768433,351.584869 513.333801,349.817505 512.992798,347.821625
	C511.545837,339.352875 513.416626,332.235352 520.712219,326.628357
	C527.907227,321.098694 533.593811,314.069489 537.034607,305.506775
	C538.333374,302.274689 539.168213,298.854279 540.499390,295.637634
	C542.010437,291.986420 544.709229,289.119873 548.891907,290.072083
	C553.453003,291.110443 553.678101,295.396790 553.205505,299.036987
	C552.062805,307.839142 549.530945,316.181061 544.430115,323.690704
	C540.250000,329.844788 534.212952,334.180786 529.583801,339.857422
	C528.080078,341.701416 525.948120,344.125702 528.766052,345.738464
	C534.017822,348.744110 539.563843,352.547760 545.734009,351.952454
	C557.222290,350.844116 567.567810,353.163330 577.017883,359.528290
	C583.505493,363.897919 589.678467,368.734375 596.160828,373.112366
	C602.253845,377.227417 609.050232,379.362549 616.479980,378.578827
	C619.266724,378.284882 621.966431,377.201263 624.752625,376.857330
	C627.496887,376.518616 630.534058,375.903595 632.433411,378.915283
	C634.221008,381.749695 633.096619,384.442078 631.659119,386.914398
	C629.441833,390.727814 626.242493,393.662476 622.502136,395.965820
	C605.936646,406.167297 588.226746,407.841522 569.721985,402.755219
	C558.105652,399.562317 548.442871,392.649292 538.151917,385.485046
M315.672638,291.552216
	C311.931366,272.515594 308.169708,253.482941 304.458191,234.440506
	C302.800140,225.933533 301.204834,217.399429 295.645020,210.352325
	C290.585358,203.939163 284.219666,199.785965 275.517212,198.703659
	C276.586700,203.979340 279.614807,207.031601 282.529572,210.243454
	C287.399811,215.610092 287.743896,222.055420 283.734680,227.581558
	C280.345367,232.253235 273.737305,233.965408 268.553253,231.515106
	C262.968384,228.875336 259.587708,222.458664 262.060150,215.893311
	C264.323181,209.884048 261.130341,206.206650 258.877319,201.374146
	C250.583389,205.174713 245.418259,211.435852 242.042725,219.285583
	C230.867203,245.273956 219.684570,271.260132 208.715225,297.335724
	C205.305679,305.440643 204.278778,314.035889 205.968765,322.765686
	C210.411789,345.716736 214.905655,368.658051 219.449509,391.589355
	C221.188446,400.365295 222.381760,409.340485 225.109222,417.810974
	C231.437622,437.464508 255.931168,443.948273 269.676880,430.141205
	C272.352142,427.454010 272.968292,425.241455 270.604614,422.005707
	C266.623627,416.555878 264.460449,410.252472 263.071686,403.687164
	C259.484100,386.727173 272.996155,371.852875 289.459198,374.726715
	C292.181732,375.201965 294.805389,376.243652 297.999725,377.176971
	C302.632172,366.652435 306.566650,356.000580 311.857361,346.071381
	C321.174713,328.585175 320.976776,310.762573 315.672638,291.552216
M281.469666,441.306549
	C277.472687,444.877625 273.257324,448.183044 268.192932,450.060791
	C265.175537,451.179596 264.083130,453.051544 264.318359,456.134918
	C264.625610,460.161682 264.423981,464.224609 262.329437,467.777344
	C260.637787,470.646729 260.997437,473.327515 261.692993,476.340851
	C264.311127,487.682922 262.156799,498.126617 252.196365,504.660706
	C246.054321,508.689941 243.917892,513.555664 243.315002,520.057617
	C243.223984,521.039124 242.865402,521.994995 242.640717,522.965027
	C239.924484,534.692749 237.297989,546.362427 244.128159,557.759644
	C245.473495,560.004578 246.311340,561.399170 249.314743,560.725586
	C271.897858,555.660461 294.086975,549.309265 315.699066,540.988281
	C318.823792,539.785217 320.044678,538.161987 318.988617,534.521729
	C316.883728,527.265991 316.072815,519.771118 318.708374,512.458252
	C323.169769,500.079346 327.465302,487.662476 328.217987,474.396484
	C328.952362,461.453308 330.668976,448.112152 325.968231,435.828766
	C319.141266,417.989441 306.127869,404.458221 291.366516,392.699219
	C288.448029,390.374298 284.784210,389.247803 281.247589,392.123566
	C277.906464,394.840454 277.881073,398.347076 278.842316,402.123291
	C280.701050,409.425171 285.044250,415.310516 289.522400,421.141571
	C292.968872,425.629364 297.190125,429.492279 300.134888,434.382294
	C302.884918,438.948883 304.000854,443.217682 300.104980,448.059631
	C296.422089,452.636871 294.921753,458.404999 293.389496,464.066956
	C291.758209,470.094635 292.560913,476.326843 291.482208,482.397888
	C290.929382,485.509247 289.806396,487.854492 286.442505,488.284576
	C283.152069,488.705261 281.043640,486.852051 279.792633,484.065887
	C278.422577,481.014496 277.793335,477.773529 277.626801,474.395172
	C277.122223,464.157806 280.162933,454.692627 283.702942,445.319580
	C284.438416,443.372192 285.585510,441.457062 283.937958,439.051025
	C283.114044,439.808044 282.526917,440.347534 281.469666,441.306549
M565.744507,157.044998
	C557.960693,155.395874 550.140747,154.043289 542.224060,153.105728
	C533.486084,152.070877 532.176514,152.776138 530.126587,161.075516
	C529.393555,164.043304 530.007568,165.424088 533.257507,165.631760
	C548.378357,166.598022 563.134949,169.764404 577.809570,173.328339
	C638.760925,188.131119 694.893555,213.799896 747.041687,248.446762
	C748.366821,249.327179 749.535278,250.771103 751.448303,250.260300
	C756.411499,240.487198 755.952026,239.147934 747.392883,233.493683
	C713.387939,211.029892 677.552429,192.161179 639.270752,178.051743
	C615.554810,169.310776 591.397888,162.106949 565.744507,157.044998
M473.843628,666.754150
	C475.440887,654.251221 477.058502,641.750854 478.630585,629.244751
	C480.906006,611.143555 483.582397,593.075989 485.162537,574.913513
	C485.693756,568.807434 488.580811,567.089050 493.371338,565.768677
	C511.481812,560.777161 529.570374,555.705261 547.649292,550.600647
	C551.626892,549.477600 555.900391,548.722473 558.496948,544.985657
	C559.910767,542.950867 561.719116,540.552917 560.021362,538.144897
	C558.563171,536.076843 555.945374,537.252502 553.942322,537.711609
	C529.946716,543.211792 506.436981,550.488892 482.813141,557.343628
	C478.463837,558.605652 475.808777,561.526001 475.257874,566.254578
	C474.182465,575.485352 472.961212,584.699158 471.804321,593.920532
	C469.986053,608.413818 468.128876,622.902405 466.366028,637.402466
	C464.443176,653.218872 462.621643,669.047607 460.722992,684.867004
	C460.424377,687.355225 459.458435,690.281067 463.330933,690.521912
	C466.684021,690.730469 470.847137,691.548035 471.565186,686.457336
	C472.445923,680.213013 473.021545,673.925659 473.843628,666.754150
M320.330872,201.884750
	C328.549286,195.219940 331.717255,186.813126 329.781128,176.278839
	C327.170807,162.076401 314.589386,153.087311 302.048035,153.694199
	C283.324341,154.600235 276.214783,167.557663 274.407501,179.530823
	C274.085663,181.662888 274.458832,183.276245 277.307526,183.698990
	C290.860168,185.710114 301.495850,192.590897 309.374573,203.720596
	C310.819946,205.762344 312.472534,206.136398 314.513702,205.195206
	C316.319031,204.362778 318.006836,203.275452 320.330872,201.884750
M329.666412,595.340759
	C307.439301,604.532532 284.330292,610.359131 260.484680,613.268555
	C257.779022,613.598694 255.350388,614.120178 256.622314,617.195374
	C257.789185,620.016541 255.660233,625.616272 261.866211,624.934570
	C267.299713,624.337708 272.735138,623.617188 278.104980,622.607056
	C298.962524,618.683533 318.849915,611.771545 337.976532,602.649658
	C341.394104,601.019775 346.039215,599.848572 343.275970,594.155762
	C340.576019,588.593201 337.146942,592.707886 334.023590,593.447632
	C332.754730,593.748169 331.597748,594.521118 329.666412,595.340759
M214.683380,459.626740
	C218.382706,460.551239 222.064728,461.553558 225.785568,462.381378
	C230.962433,463.533112 236.137115,464.756866 241.372177,465.564392
	C245.274414,466.166321 247.832153,463.947113 248.539658,460.215454
	C249.176620,456.855896 249.111496,453.555847 244.784805,452.188110
	C230.709396,447.738647 216.441498,444.048737 201.975388,441.136353
	C197.875916,440.311035 194.796341,442.697510 194.348480,446.803528
	C193.866562,451.221588 195.804749,454.297180 199.971100,455.635071
	C204.543457,457.103333 209.228622,458.220154 214.683380,459.626740
M231.399826,493.844360
	C232.363449,494.086426 233.314682,494.451935 234.292740,494.550079
	C239.757141,495.098419 244.994446,491.676331 245.496933,486.929718
	C246.128555,480.963379 241.124359,481.193298 237.475769,480.294373
	C224.616013,477.125946 211.710312,474.144165 198.845032,470.997589
	C196.457367,470.413635 194.164886,469.942047 192.451599,472.106628
	C190.628555,474.409943 189.737366,477.063232 190.796326,480.024536
	C191.970001,483.306671 194.459930,484.989655 197.749268,485.776764
	C208.695984,488.396149 219.631744,491.061340 231.399826,493.844360
M651.249207,600.665039
	C654.395935,595.927673 654.344299,591.175537 650.670654,586.876892
	C647.833130,583.556580 644.026794,581.871948 639.539185,582.962341
	C634.575134,584.168518 630.935547,588.316589 630.402100,593.056702
	C629.874207,597.747620 632.471619,602.312500 636.880798,604.442810
	C641.834900,606.836304 645.849304,605.918518 651.249207,600.665039
M631.020630,687.603882
	C631.686157,687.625916 632.353149,687.688782 633.016907,687.663635
	C639.218689,687.429138 644.235596,682.652039 644.540527,676.707642
	C644.803772,671.577698 640.446228,666.255005 635.191406,665.287537
	C628.845215,664.119019 624.116516,666.971863 622.108704,673.180298
	C620.122192,679.322632 622.858032,684.137756 631.020630,687.603882
M515.714600,583.297791
	C514.954529,583.623840 514.144287,583.866394 513.442383,584.289062
	C507.871277,587.643860 505.904175,593.430786 508.486603,598.758606
	C511.107727,604.166321 516.935242,606.799438 522.101196,604.910217
	C527.666321,602.875061 531.453491,596.944275 530.221802,592.193726
	C528.517517,585.620605 522.977661,581.968323 515.714600,583.297791
M517.633057,685.261414
	C522.378845,680.333496 523.432556,675.650879 520.850891,670.961182
	C518.533142,666.750854 513.433777,664.115967 509.242401,664.923218
	C503.872925,665.957520 500.806000,669.387634 499.632996,674.507690
	C498.529633,679.323547 500.849609,682.964417 504.507782,685.694336
	C508.565216,688.722168 512.854980,688.424438 517.633057,685.261414
M210.162567,427.090179
	C211.422180,427.339752 212.083313,426.957672 211.774338,425.558533
	C210.353455,419.124420 208.976822,412.679993 207.480820,406.263397
	C207.070328,404.502655 206.060120,403.435638 203.876572,403.861694
	C199.225235,404.769318 193.702942,411.021973 193.406250,415.963409
	C193.178436,419.757629 196.571671,423.613800 201.796295,425.195770
	C204.314117,425.958099 206.940140,426.363129 210.162567,427.090179
M554.616455,489.780426
	C556.274048,490.760773 557.604370,492.443756 560.127808,492.245361
	C560.944153,487.885132 562.041626,483.259827 560.195496,479.206390
	C558.692627,475.906616 554.421265,477.890411 551.493103,477.000793
	C549.452332,476.380737 547.298645,476.128754 545.192200,475.729279
	C543.481873,475.404968 541.748657,474.913940 539.645020,476.145050
	C543.822693,481.624268 548.780151,485.668701 554.616455,489.780426
M219.004089,512.691162
	C220.634644,515.069946 222.265182,517.448792 224.631866,520.901489
	C225.135971,516.398987 228.213409,513.109863 225.898376,510.319122
	C224.139679,508.199005 220.479874,507.767487 217.404953,508.753510
	C217.077072,510.358917 218.187958,511.103180 219.004089,512.691162
z"/>
<path fill="#000000" opacity="1.000000" stroke="none"
	d="
M806.893921,862.046753
	C797.204468,843.410278 787.688965,825.101929 778.173523,806.793640
	C777.802307,806.826660 777.431091,806.859741 777.059875,806.892761
	C777.059875,809.586914 777.059387,812.281067 777.059937,814.975220
	C777.064148,834.807617 777.087219,854.640076 777.045776,874.472351
	C777.041260,876.617676 776.706665,878.767456 776.448181,880.905884
	C775.993347,884.668762 773.862305,886.442749 770.040466,886.390808
	C764.375000,886.313904 758.706909,886.302490 753.041809,886.388184
	C749.611084,886.440125 747.712402,884.875427 747.292419,881.522156
	C747.024841,879.385681 746.688171,877.235718 746.686096,875.091492
	C746.648193,835.426392 746.646973,795.761292 746.660706,756.096191
	C746.664124,746.266357 748.268066,744.663391 757.840576,744.657959
	C761.507080,744.655823 765.208618,744.976929 768.832275,744.582336
	C774.837646,743.928467 778.302246,746.436157 781.048279,751.732178
	C792.318237,773.468201 803.928284,795.027954 815.425110,816.646118
	C816.814087,819.257874 818.275818,821.830811 819.758972,824.521790
	C819.758972,800.599121 819.681091,776.847534 819.806702,753.097046
	C819.844177,746.003113 821.463684,744.665710 828.369995,744.652893
	C833.369812,744.643677 838.376038,744.812927 843.367493,744.609497
	C848.155518,744.414368 849.931396,747.004639 850.260742,751.236145
	C850.351074,752.396240 850.295898,753.568176 850.295715,754.734680
	C850.289429,795.066406 850.285034,835.398132 850.271545,875.729858
	C850.268433,884.917664 848.812744,886.340637 839.495361,886.356140
	C834.828918,886.363953 830.160095,886.270691 825.496704,886.391418
	C821.567078,886.493042 818.864380,884.934998 817.067627,881.394714
	C813.826294,875.008118 810.410706,868.710022 806.893921,862.046753
z"/>
<path fill="#000000" opacity="1.000000" stroke="none"
	d="
M614.661438,809.140503
	C616.086975,792.271851 618.743103,776.257507 629.536438,762.951965
	C643.164246,746.152344 661.099731,740.616150 682.035034,743.313354
	C712.396606,747.225037 728.561707,770.099365 731.393188,798.701111
	C733.209900,817.052368 733.184265,835.162659 726.541016,852.776123
	C718.582031,873.878296 698.318848,888.229065 675.837585,888.369873
	C642.027649,888.581604 618.682007,866.948181 615.489502,833.030396
	C614.752686,825.202454 614.863586,817.425781 614.661438,809.140503
M698.774414,837.383301
	C701.787048,821.851135 701.855530,806.297607 698.184082,790.910645
	C695.197449,778.393982 685.533813,770.616577 673.759033,770.378601
	C662.458313,770.150146 653.049377,777.262207 649.546448,789.676331
	C644.653809,807.015320 644.996704,824.618042 649.607910,841.899902
	C653.498535,856.481079 666.328125,863.426025 680.575562,859.425049
	C691.216919,856.436768 696.443848,848.529785 698.774414,837.383301
z"/>
<path fill="#000000" opacity="1.000000" stroke="none"
	d="
M339.991577,744.652954
	C357.103302,744.748108 355.716553,742.741333 360.656494,759.770264
	C371.997559,798.865051 383.476318,837.919861 394.876007,876.997681
	C397.086761,884.575989 395.745514,886.344666 387.959839,886.358459
	C382.293549,886.368530 376.624084,886.243835 370.962097,886.399536
	C366.946869,886.509949 364.735107,884.592957 363.752472,880.917236
	C362.336517,875.620605 360.846100,870.340759 359.585876,865.006836
	C358.802277,861.690308 357.367584,859.832520 353.553528,859.898926
	C343.224396,860.078613 332.888794,860.031311 322.558105,859.896667
	C319.131134,859.851990 317.426697,861.275391 316.620453,864.529358
	C315.302948,869.846802 313.703125,875.093872 312.246918,880.377380
	C311.133179,884.418396 308.738129,886.547302 304.315277,886.406616
	C298.821350,886.231812 293.317047,886.413208 287.817871,886.365967
	C281.266846,886.309692 279.529236,884.080078 281.350494,877.553711
	C284.566315,866.029785 287.948273,854.551575 291.334839,843.076111
	C300.368866,812.463989 309.531372,781.889343 318.406677,751.231384
	C319.780273,746.486572 322.499329,744.700500 326.995605,744.669922
	C331.161774,744.641602 335.328247,744.656921 339.991577,744.652954
M330.084473,813.321960
	C328.724396,818.449951 327.495361,823.617615 325.958893,828.692200
	C324.911102,832.153015 326.514862,833.487366 329.511230,833.563416
	C335.159088,833.706726 340.819916,833.734741 346.463287,833.508911
	C349.727997,833.378296 351.075806,831.697815 350.095459,828.121338
	C347.642609,819.172668 345.648193,810.097656 343.160706,801.159424
	C341.800934,796.273376 341.181702,791.112854 338.346436,785.984558
	C334.210815,794.795776 332.927094,803.877563 330.084473,813.321960
z"/>
<path fill="#000000" opacity="1.000000" stroke="none"
	d="
M414.489380,775.421265
	C410.559021,768.228455 406.655670,761.438232 403.064392,754.486877
	C399.655090,747.887756 401.663116,744.708496 408.977905,744.666748
	C414.976837,744.632507 420.983887,744.842407 426.972717,744.593018
	C431.641632,744.398560 434.328674,746.387146 436.237335,750.549011
	C441.026154,760.991028 446.096130,771.304321 451.084320,781.654358
	C451.784058,783.106262 452.173401,784.789673 453.616364,785.843445
	C455.599030,784.866516 455.905365,782.901062 456.677429,781.330017
	C461.671875,771.167053 466.676361,761.006714 471.475250,750.750916
	C473.473419,746.480591 476.295715,744.347290 481.184326,744.588806
	C487.002533,744.876343 492.846222,744.617004 498.678284,744.665100
	C505.551758,744.721802 507.900970,748.281372 504.532928,754.315369
	C496.904999,767.981079 488.941833,781.459473 481.136139,795.026245
	C478.230286,800.076721 475.542725,805.261108 472.448975,810.192139
	C470.611542,813.120789 470.783081,815.494629 472.470917,818.416565
	C483.633453,837.740234 494.665771,857.139221 505.714600,876.528442
	C509.949982,883.960938 508.537903,886.333008 499.945618,886.352478
	C494.279785,886.365356 488.596008,886.087158 482.953369,886.451660
	C477.654968,886.793945 474.728638,884.559082 472.520691,879.883850
	C467.259918,868.744995 461.606781,857.790771 456.056976,846.789795
	C455.185303,845.061951 454.664398,843.036377 452.763428,841.898254
	C450.560913,842.990295 450.096191,845.259644 449.156067,847.110901
	C443.575928,858.099243 437.919434,869.054565 432.645905,880.190186
	C430.488922,884.744812 427.533630,886.678223 422.517548,886.424988
	C416.533966,886.122986 410.522400,886.420593 404.524078,886.354309
	C398.124268,886.283630 396.651306,883.431946 399.824036,877.710388
	C410.808136,857.902283 421.670929,838.026306 432.773834,818.285217
	C434.639343,814.968384 434.693420,812.407471 432.819183,809.090515
	C426.594177,798.073975 420.683777,786.879639 414.489380,775.421265
z"/>
<path fill="#000000" opacity="1.000000" stroke="none"
	d="
M278.168121,851.548340
	C273.191284,877.169006 248.122650,887.678467 230.301773,888.449890
	C199.656326,889.776306 179.789688,869.611145 174.592316,844.954163
	C170.177979,824.012085 169.414688,802.959106 175.764633,782.359619
	C188.590286,740.752563 233.994186,734.126892 259.704651,751.329651
	C270.854156,758.789734 277.122467,769.382080 278.500702,782.778992
	C279.036224,787.984924 277.029480,790.797546 271.770050,791.145569
	C266.132782,791.518616 260.448303,791.370361 254.792328,791.194824
	C251.468704,791.091675 249.315140,789.137329 248.283554,785.917175
	C245.279617,776.540222 238.941559,770.744141 229.044601,770.523193
	C219.106750,770.301453 212.162613,775.683838 207.999023,784.669189
	C205.024292,791.088989 203.446136,797.835632 203.364731,804.892578
	C203.242096,815.523926 202.093155,826.254822 204.517654,836.727722
	C207.070862,847.756470 212.123077,856.675293 224.432388,859.903320
	C232.784073,862.093445 244.371689,856.743164 247.419952,847.600586
	C249.307236,841.940247 252.733826,840.085388 258.319733,840.602417
	C261.622467,840.908081 264.976807,840.653137 268.307953,840.655457
	C277.550171,840.661987 278.514832,841.679077 278.168121,851.548340
z"/>
<path fill="#000000" opacity="1.000000" stroke="none"
	d="
M600.852417,744.653564
	C610.097107,744.724670 612.119568,746.711304 612.182251,755.593262
	C612.204529,758.748657 612.055054,761.916687 611.774658,765.060242
	C611.325500,770.096313 608.283752,772.342896 603.395325,772.353638
	C597.065613,772.367554 590.720703,772.628601 584.411133,772.272278
	C579.467041,771.993103 578.236633,773.943970 578.260498,778.630920
	C578.427124,811.278137 578.346436,843.926697 578.343628,876.574768
	C578.342896,885.273438 577.283264,886.343567 568.623962,886.363708
	C563.793396,886.375000 558.962463,886.401733 554.132263,886.357971
	C548.427124,886.306213 546.807373,884.693054 546.691284,878.878540
	C546.611450,874.882324 546.667786,870.883423 546.667664,866.885681
	C546.666687,837.402466 546.561401,807.918518 546.770264,778.436768
	C546.804993,773.529907 545.209534,772.007690 540.484314,772.268555
	C534.505798,772.598633 528.494934,772.409729 522.499146,772.341675
	C516.176514,772.269897 513.862000,769.942932 513.681152,763.519958
	C513.587341,760.191223 513.630432,756.857117 513.674622,753.526306
	C513.760437,747.055359 516.174805,744.685913 522.918518,744.666565
	C538.576172,744.621704 554.233948,744.652466 569.891724,744.652771
	C580.052673,744.652954 590.213562,744.653503 600.852417,744.653564
z"/>
<path fill="#000000" opacity="1.000000" stroke="none"
	d="
M608.341125,259.318848
	C617.522339,260.324493 625.118164,263.696167 631.284607,270.040771
	C632.316162,271.102112 633.293762,272.310944 633.949280,273.624695
	C635.827209,277.388397 636.732056,281.487518 633.413330,284.719757
	C630.192017,287.857086 626.190735,286.776031 622.808350,284.655792
	C617.294006,281.199097 611.923584,277.451019 605.233337,276.795502
	C601.274841,276.407654 597.270203,276.449707 593.284912,276.387024
	C588.735291,276.315460 584.948608,274.927795 583.785461,270.081116
	C582.742737,265.736237 585.135925,262.640045 590.726685,260.699188
	C596.307068,258.761932 602.038391,258.045288 608.341125,259.318848
z"/>
<path fill="#000000" opacity="1.000000" stroke="none"
	d="
M517.307251,411.081543
	C516.407837,407.867981 516.120789,405.100159 518.885925,403.055481
	C521.687622,400.983765 524.731262,401.286163 527.288147,403.096100
	C536.566040,409.663483 546.659180,411.002991 557.646973,409.043427
	C561.083008,408.430603 564.943359,409.540192 566.097839,413.606445
	C567.346497,418.004669 564.533997,420.501556 560.799988,421.898346
	C549.005615,426.310364 537.384094,425.634277 526.106628,420.137665
	C522.302368,418.283539 519.344360,415.351166 517.307251,411.081543
z"/>
<path fill="#000000" opacity="1.000000" stroke="none"
	d="
M608.371826,316.794617
	C603.669128,325.981506 597.119019,328.656952 590.759521,324.333984
	C586.364746,321.346558 584.362793,314.612732 585.919800,308.054840
	C587.306519,302.214111 592.112793,297.432343 597.278564,296.754089
	C602.730835,296.038208 608.239197,300.373810 609.140198,306.561676
	C609.611877,309.801270 609.925476,313.206055 608.371826,316.794617
z"/>
<path fill="#000000" opacity="1.000000" stroke="none"
	d="
M510.800629,284.105713
	C521.765442,281.640594 525.383301,289.516418 526.044189,296.832977
	C526.801208,305.213806 520.566406,312.615784 513.457886,312.385376
	C505.864807,312.139252 501.005371,304.166779 502.872040,294.781952
	C503.783875,290.197571 505.875366,286.316772 510.800629,284.105713
z"/>
<path fill="#000000" opacity="1.000000" stroke="none"
	d="
M503.424805,266.812225
	C499.541382,267.947998 496.630188,267.173828 495.185669,263.685883
	C493.868958,260.506561 495.343170,257.913940 497.739563,255.750732
	C507.521057,246.920898 522.107117,248.456772 531.017883,254.474182
	C533.824524,256.369476 535.180298,259.319366 533.916931,262.743347
	C532.676453,266.105377 529.863708,266.815918 526.595947,266.383789
	C525.613159,266.253784 524.540344,266.393768 523.649048,266.048218
	C516.936218,263.445496 510.351288,263.896088 503.424805,266.812225
z"/>
<path fill="#000000" opacity="1.000000" stroke="none"
	d="
M257.161255,294.150330
	C261.057037,294.962616 264.722351,295.286713 268.264587,296.128601
	C280.331177,298.996399 287.871796,307.140106 289.331116,318.581879
	C291.019653,331.820343 285.509644,343.897400 275.101105,349.771698
	C261.175201,357.631073 242.215347,353.968384 232.231461,341.490112
	C228.825958,337.233765 228.964020,335.438080 233.029358,331.846802
	C234.026688,330.965759 235.100555,330.171509 236.137161,329.334747
	C240.997009,325.411835 241.623459,325.518463 245.652023,330.368103
	C249.534790,335.042175 254.122513,338.795624 260.638580,337.423248
	C266.116791,336.269501 269.349762,332.392059 270.950745,326.973389
	C272.500458,321.728119 270.861359,317.421539 267.432343,313.695923
	C263.890198,309.847443 259.325714,308.528534 254.240326,309.863312
	C251.847580,310.491364 249.589218,311.635925 247.276031,312.561615
	C241.395782,314.914795 237.491272,312.581390 237.720932,306.326965
	C238.179062,293.850403 241.243042,281.741241 243.478531,269.518066
	C244.114273,266.042023 246.476608,265.541077 249.387268,265.632935
	C259.364502,265.947662 269.129303,268.084137 279.028870,269.062256
	C280.180511,269.176025 281.310669,269.497589 282.461456,269.631226
	C291.426575,270.672333 293.426086,273.899689 290.110779,282.337616
	C288.626495,286.115295 285.356171,286.690857 281.815430,286.233673
	C277.050140,285.618378 272.273834,285.019592 267.553528,284.138947
	C257.992706,282.355316 257.527863,281.891388 257.161255,294.150330
z"/>
<path fill="#000000" opacity="1.000000" stroke="none"
	d="
M254.163971,424.752380
	C250.786560,425.663086 247.863449,425.710815 245.216537,423.763641
	C241.499069,421.028900 240.566605,415.493652 243.184006,411.706360
	C245.776810,407.954681 251.252991,406.838531 255.147507,409.267914
	C259.130493,411.752563 260.414307,417.005859 258.010986,421.076416
	C257.153229,422.529205 256.072968,423.782410 254.163971,424.752380
z"/>
</svg>
